<svg width="103" height="50" fill="none" xmlns="http://www.w3.org/2000/svg"><path fill="#B4131F" d="M1.852 2.778h.926v1.389h-.926z"/><path fill="#D43A48" d="M2.778 7.639h.926v1.389h-.926zM1.852 4.167h.926v1.389h-.926zM1.852 9.722h.926v1.389h-.926zM2.778 10.417h.926v1.389h-.926z"/><path fill="#D43A48" d="M.926 10.417h.926v1.389H.926zM1.852 8.333h.926v1.389h-.926zM1.852 6.944h.926v1.389h-.926zM2.778 15.972h.926v1.389h-.926zM2.778 17.361h.926v1.389h-.926zM2.778 4.861h.926V6.25h-.926zM2.778 6.25h.926v1.389h-.926zM2.778 2.083h.926v1.389h-.926z"/><path fill="#D43A48" d="M2.778 3.472h.926v1.389h-.926zM3.704 6.944h.926v1.389h-.926z"/><path fill="#D43A48" d="M3.704 4.167h.926v1.389h-.926zM3.704 5.556h.926v1.389h-.926z"/><path fill="#B4131F" d="M3.704 1.389h.926v1.389h-.926z"/><path fill="#D43A48" d="M3.704 2.778h.926v1.389h-.926zM3.704 13.889h.926v1.389h-.926zM3.704 11.111h.926V12.5h-.926zM3.704 12.5h.926v1.389h-.926zM3.704 8.333h.926v1.389h-.926zM3.704 9.722h.926v1.389h-.926z"/><path fill="#DAB3A6" d="M1.852 12.5h.926v1.389h-.926zM1.852 11.111h.926V12.5h-.926zM3.704 16.667h.926v1.389h-.926zM3.704 15.278h.926v1.389h-.926zM2.778 13.194h.926v1.389h-.926zM2.778 9.028h.926v1.389h-.926zM6.481 2.083h.926v1.389h-.926zM7.407 5.556h.926v1.389h-.926zM7.407 15.278h.926v1.389h-.926zM7.407 4.167h.926v1.389h-.926z"/><path fill="#DAB3A6" d="M2.778 14.583h.926v1.389h-.926zM2.778 11.806h.926v1.389h-.926z"/><path fill="#D43A48" d="M.926 11.806h.926v1.389H.926zM.926 14.583h.926v1.389H.926z"/><path fill="#D43A48" d="M.926 13.194h.926v1.389H.926z"/><path fill="#B4131F" d="M1.852 5.556h.926v1.389h-.926z"/><path fill="#D43A48" d="M5.555 20.139H4.63v-1.39h.926z"/><path fill="#6CB950" d="M7.408 34.028h-.926v-1.39h.926z"/><path fill="#D43A48" d="M5.555 17.361H4.63v-1.389h.926zM5.555 15.972H4.63v-1.389h.926z"/><path fill="#B4131F" d="M5.555 18.75H4.63v-1.389h.926z"/><path fill="#D43A48" d="M6.482 13.889h-.926v-1.39h.926z"/><path fill="#B4131F" d="M6.482 12.5h-.926v-1.389h.926zM6.482 11.111h-.926V9.722h.926zM6.482 15.278h-.926v-1.39h.926z"/><path fill="#D43A48" d="M6.482 19.444h-.926v-1.389h.926z"/><path fill="#D43A48" d="M6.482 18.056h-.926v-1.389h.926z"/><path fill="#B4131F" d="M6.482 16.666h-.926v-1.389h.926zM6.482 20.834h-.926v-1.39h.926z"/><path fill="#6CB950" d="M8.334 31.945h-.926v-1.39h.926zM7.408 35.416h-.926v-1.389h.926z"/><path fill="#074710" d="M7.408 45.139h-.926v-1.39h.926zM5.555 43.75H4.63v-1.389h.926z"/><path fill="#6CB950" d="M7.408 31.25h-.926v-1.389h.926z"/><path fill="#D43A48" d="M8.334 19.444h-.926v-1.389h.926z"/><path fill="#6CB950" d="M8.334 37.5h-.926v-1.389h.926zM7.408 27.084h-.926v-1.39h.926z"/><path fill="#D43A48" d="M8.334 18.056h-.926v-1.389h.926z"/><path fill="#CDDB91" d="M8.334 36.111h-.926v-1.389h.926z"/><path fill="#D43A48" d="M8.334 13.889h-.926v-1.39h.926zM8.334 11.111h-.926V9.722h.926z"/><path fill="#D43A48" d="M8.334 15.278h-.926v-1.39h.926zM8.334 12.5h-.926v-1.389h.926zM8.334 9.722h-.926V8.333h.926z"/><path fill="#DAB3A6" d="M11.111 12.5h.926v1.389h-.926zM8.333 11.806h.926v1.389h-.926z"/><path fill="#B4131F" d="M11.111 13.195h-.926v-1.389h.926z"/><path fill="#D43A48" d="M9.26 10.416h-.926V9.027h.926z"/><path fill="#D43A48" d="M9.26 9.028h-.926v-1.39h.926zM9.26 11.805h-.926v-1.389h.926z"/><path fill="#DAB3A6" d="M8.333 14.583h.926v1.389h-.926zM11.111 9.722h.926v1.389h-.926z"/><path fill="#6CB950" d="M8.334 33.334h-.926v-1.39h.926z"/><path fill="#D43A48" d="M9.26 14.584h-.926v-1.39h.926zM5.555 13.195H4.63v-1.389h.926zM9.26 7.639h-.926v-1.39h.926z"/><path fill="#B4131F" d="M8.334 20.834h-.926v-1.39h.926z"/><path fill="#6CB950" d="M8.334 27.778h-.926v-1.39h.926zM8.334 40.278h-.926v-1.39h.926z"/><path fill="#074710" d="M9.26 46.528h-.926v-1.39h.926zM5.555 36.805H4.63v-1.389h.926zM5.555 35.416H4.63v-1.389h.926z"/><path fill="#074710" d="M5.555 34.028H4.63v-1.39h.926zM6.482 44.445h-.926v-1.39h.926zM4.63 40.278h-.927v-1.39h.926z"/><path fill="#074710" d="M4.63 38.889h-.927v-1.39h.926zM5.555 38.195H4.63v-1.39h.926zM4.63 33.334h-.927v-1.39h.926z"/><path fill="#074710" d="M4.63 31.945h-.927v-1.39h.926zM4.63 37.5h-.927v-1.389h.926zM5.555 40.972H4.63v-1.389h.926z"/><path fill="#074710" d="M5.555 39.584H4.63v-1.39h.926zM5.555 42.361H4.63v-1.389h.926zM6.482 40.278h-.926v-1.39h.926zM7.408 42.361h-.926v-1.389h.926zM7.408 43.75h-.926v-1.389h.926z"/><path fill="#074710" d="M6.482 41.666h-.926v-1.389h.926zM6.482 38.889h-.926v-1.39h.926zM6.482 43.055h-.926v-1.389h.926z"/><path fill="#6CB950" d="M8.334 38.889h-.926v-1.39h.926z"/><path fill="#074710" d="M8.334 45.834h-.926v-1.39h.926z"/><path fill="#D43A48" d="M9.26 17.361h-.926v-1.389h.926z"/><path fill="#B4131F" d="M9.26 18.75h-.926v-1.389h.926z"/><path fill="#D43A48" d="M12.037 16.666h-.926v-1.389h.926z"/><path fill="#CDDB91" d="M8.334 25h-.926v-1.389h.926z"/><path fill="#CDDB91" d="M8.334 26.389h-.926v-1.39h.926zM6.482 37.5h-.926v-1.389h.926zM5.555 32.639H4.63v-1.39h.926zM8.334 43.055h-.926v-1.389h.926zM6.482 34.722h-.926v-1.389h.926zM8.334 41.666h-.926v-1.389h.926z"/><path fill="#6CB950" d="M9.26 40.972h-.926v-1.389h.926zM7.408 46.528h-.926v-1.39h.926z"/><path fill="#6CB950" d="M8.334 47.222h-.926v-1.389h.926zM5.555 45.139H4.63v-1.39h.926zM6.482 45.834h-.926v-1.39h.926zM4.63 43.055h-.927v-1.389h.926zM9.26 47.916h-.926v-1.389h.926z"/><path fill="#CDDB91" d="M9.26 39.584h-.926v-1.39h.926z"/><path fill="#6CB950" d="M9.26 43.75h-.926v-1.389h.926zM9.26 42.361h-.926v-1.389h.926z"/><path fill="#CDDB91" d="M9.26 45.139h-.926v-1.39h.926zM7.408 40.972h-.926v-1.389h.926zM8.334 44.445h-.926v-1.39h.926zM10.185 43.055H9.26v-1.389h.926zM10.185 45.834H9.26v-1.39h.926zM10.185 50H9.26v-1.389h.926zM6.482 47.222h-.926v-1.389h.926zM10.185 48.611H9.26v-1.389h.926zM8.334 48.611h-.926v-1.389h.926z"/><path fill="#CDDB91" d="M7.408 47.916h-.926v-1.389h.926zM9.26 49.305h-.926v-1.389h.926zM10.185 47.222H9.26v-1.389h.926zM10.185 44.445H9.26v-1.39h.926zM7.408 38.195h-.926v-1.39h.926zM6.482 36.111h-.926v-1.389h.926z"/><path fill="#CDDB91" d="M7.408 39.584h-.926v-1.39h.926zM7.408 25.694h-.926v-1.389h.926z"/><path fill="#6CB950" d="M7.408 29.861h-.926v-1.389h.926z"/><path fill="#6CB950" d="M8.334 30.555h-.926v-1.389h.926z"/><path fill="#CDDB91" d="M8.334 29.166h-.926v-1.389h.926z"/><path fill="#6CB950" d="M2.778 30.555h-.926v-1.389h.926z"/><path fill="#6CB950" d="M3.703 31.25h-.926v-1.389h.926z"/><path fill="#CDDB91" d="M3.703 29.861h-.926v-1.389h.926z"/><path fill="#074710" d="M1.852 27.084H.926v-1.39h.926zM1.852 25.694H.926v-1.389h.926z"/><path fill="#CDDB91" d="M2.778 27.778h-.926v-1.39h.926zM.926 27.778H0v-1.39h.926z"/><path fill="#6CB950" d="M.926 26.389H0v-1.39h.926z"/><path fill="#074710" d="M2.778 29.166h-.926v-1.389h.926z"/><path fill="#CDDB91" d="M7.408 32.639h-.926v-1.39h.926zM7.408 28.472h-.926v-1.389h.926zM3.703 34.028h-.926v-1.39h.926z"/><path fill="#CDDB91" d="M2.778 33.334h-.926v-1.39h.926z"/><path fill="#CDDB91" d="M3.703 32.639h-.926v-1.39h.926z"/><path fill="#CDDB91" d="M2.778 31.945h-.926v-1.39h.926zM.926 30.555H0v-1.389h.926zM.926 25H0v-1.389h.926zM.926 29.166H0v-1.389h.926zM1.852 29.861H.926v-1.389h.926z"/><path fill="#6CB950" d="M1.852 28.472H.926v-1.389h.926z"/><path fill="#CDDB91" d="M1.852 31.25H.926v-1.389h.926z"/><path fill="#CDDB91" d="M1.852 32.639H.926v-1.39h.926zM2.778 34.722h-.926v-1.389h.926z"/><path fill="#CDDB91" d="M2.778 36.111h-.926v-1.389h.926z"/><path fill="#B4131F" d="M12.037 18.056h-.926v-1.389h.926z"/><path fill="#074710" d="M4.63 41.666h-.927v-1.389h.926z"/><path fill="#D43A48" d="M11.111 18.75h-.926v-1.389h.926z"/><path fill="#B4131F" d="M11.111 20.139h-.926v-1.39h.926z"/><path fill="#D43A48" d="M10.185 19.444H9.26v-1.389h.926z"/><path fill="#D43A48" d="M10.185 18.056H9.26v-1.389h.926z"/><path fill="#B4131F" d="M10.185 20.834H9.26v-1.39h.926z"/><path fill="#6CB950" d="M7.408 36.805h-.926v-1.389h.926zM2.778 35.417h.926v1.389h-.926zM2.778 37.5h-.926v-1.389h.926z"/><path fill="#D43A48" d="M9.26 20.139h-.926v-1.39h.926z"/><path fill="#B4131F" d="M10.185 16.666H9.26v-1.389h.926z"/><path fill="#6CB950" d="M7.408 24.306h-.926v-1.389h.926z"/><path fill="#B4131F" d="M9.26 21.528h-.926v-1.39h.926zM5.555 21.528H4.63v-1.39h.926z"/><path fill="#D43A48" d="M4.63 4.861h.926V6.25H4.63z"/><path fill="#B4131F" d="M4.63 2.083h.926v1.389H4.63z"/><path fill="#D43A48" d="M4.63 7.639h.926v1.389H4.63zM4.63 6.25h.926v1.389H4.63zM10.185 2.083h.926v1.389h-.926zM7.407 1.389h.926v1.389h-.926z"/><path fill="#B4131F" d="M5.556 6.944h.926v1.389h-.926z"/><path fill="#D43A48" d="M7.407 6.944h.926v1.389h-.926zM6.481 4.861h.926V6.25h-.926zM6.481 3.472h.926v1.389h-.926zM6.481 7.639h.926v1.389h-.926zM6.481 6.25h.926v1.389h-.926zM6.481 17.361h.926v1.389h-.926zM6.481 15.972h.926v1.389h-.926z"/><path fill="#6CB950" d="M7.407 33.333h.926v1.389h-.926zM3.703 42.361h-.926v-1.389h.926zM3.703 43.75h-.926v-1.389h.926z"/><path fill="#6CB950" d="M3.703 40.972h-.926v-1.389h.926zM3.704 43.056h.926v1.389h-.926zM1.852 38.195H.926v-1.39h.926zM4.63 36.111h-.927v-1.389h.926z"/><path fill="#CDDB91" d="M3.703 35.416h-.926v-1.389h.926z"/><path fill="#6CB950" d="M2.778 38.194h.926v1.389h-.926zM2.778 38.889h-.926v-1.39h.926zM2.778 41.666h-.926v-1.389h.926z"/><path fill="#6CB950" d="M3.703 38.195h-.926v-1.39h.926zM1.852 41.667h.926v1.389h-.926zM1.852 39.584H.926v-1.39h.926z"/><path fill="#6CB950" d="M1.852 40.972H.926v-1.389h.926z"/><path fill="#6CB950" d="M1.852 38.889h.926v1.389h-.926zM3.704 33.333h.926v1.389h-.926z"/><path fill="#D43A48" d="M6.481 18.75h.926v1.389h-.926zM6.481 10.417h.926v1.389h-.926zM6.481 9.028h.926v1.389h-.926zM6.481 14.583h.926v1.389h-.926zM6.481 13.194h.926v1.389h-.926zM5.556 2.778h.926v1.389h-.926zM5.556 4.167h.926v1.389h-.926zM4.63 9.028h.926v1.389H4.63zM4.63 13.194h.926v1.389H4.63zM4.63 10.417h.926v1.389H4.63z"/><path fill="#B4131F" d="M4.63 3.472h.926v1.389H4.63zM5.556 5.556h.926v1.389h-.926zM5.556 8.333h.926v1.389h-.926zM.926 9.028h.926v1.389H.926zM.926 7.639h.926v1.389H.926zM0 11.111h.926V12.5H0zM.926 15.972h.926v1.389H.926z"/><path fill="#D43A48" d="M1.852 13.889h.926v1.389h-.926zM1.852 16.667h.926v1.389h-.926zM1.852 15.278h.926v1.389h-.926z"/><path fill="#B4131F" d="M1.852 18.055h.926v1.389h-.926zM2.778 18.75h.926v1.389h-.926z"/><path fill="#D43A48" d="M3.704 18.055h.926v1.389h-.926z"/><path fill="#B4131F" d="M3.704 19.445h.926v1.389h-.926zM0 12.5h.926v1.389H0zM0 13.889h.926v1.389H0zM1.852 1.389h.926v1.389h-.926zM11.111 4.167h.926v1.389h-.926zM11.111 2.778h.926v1.389h-.926zM12.037 7.639h.926v1.389h-.926zM12.037 6.25h.926v1.389h-.926zM12.037 15.972h.926v1.389h-.926zM12.037 14.583h.926v1.389h-.926zM11.111 1.389h.926v1.389h-.926z"/><path fill="#6CB950" d="M7.407 20.833h.926v1.389h-.926zM6.481 20.139h.926v1.389h-.926z"/><path fill="#6CB950" d="M5.556 20.833h.926v1.389h-.926z"/><path fill="#B4131F" d="M12.963 12.5h.926v1.389h-.926zM12.963 11.111h.926V12.5h-.926zM12.963 9.722h.926v1.389h-.926zM10.185.694h.926v1.389h-.926z"/><path fill="#D43A48" d="M8.333 3.472h.926v1.389h-.926zM7.407 2.778h.926v1.389h-.926zM8.333 4.861h.926V6.25h-.926zM7.408 13.195h-.926v-1.389h.926zM11.111 4.861h-.926V3.472h.926z"/><path fill="#CDDB91" d="M7.408 22.916h-.926v-1.389h.926z"/><path fill="#DAB3A6" d="M12.037 15.278h-.926v-1.39h.926z"/><path fill="#D43A48" d="M12.037 12.5h-.926v-1.389h.926zM12.037 9.722h-.926V8.333h.926z"/><path fill="#D43A48" d="M12.037 8.334h-.926v-1.39h.926z"/><path fill="#D43A48" d="M12.037 6.945h-.926v-1.39h.926zM12.963 13.195h-.926v-1.389h.926zM12.963 11.805h-.926v-1.389h.926zM12.963 10.416h-.926V9.027h.926zM11.111 17.361h-.926v-1.389h.926z"/><path fill="#6CB950" d="M8.334 23.611h-.926v-1.389h.926z"/><path fill="#D43A48" d="M11.111 15.972h-.926v-1.389h.926zM10.185 13.889H9.26v-1.39h.926zM12.963 14.584h-.926v-1.39h.926z"/><path fill="#D43A48" d="M10.185 15.278H9.26v-1.39h.926z"/><path fill="#B4131F" d="M11.111 14.584h-.926v-1.39h.926zM11.111 11.805h-.926v-1.389h.926zM11.111 10.416h-.926V9.027h.926z"/><path fill="#B4131F" d="M11.111 9.028h-.926v-1.39h.926z"/><path fill="#B4131F" d="M11.111 7.639h-.926v-1.39h.926z"/><path fill="#D43A48" d="M10.185 2.778H9.26v-1.39h.926zM10.185 6.945H9.26v-1.39h.926z"/><path fill="#D43A48" d="M10.185 4.166H9.26V2.777h.926zM10.185 12.5H9.26v-1.389h.926zM10.185 11.111H9.26V9.722h.926zM10.185 9.722H9.26V8.333h.926z"/><path fill="#D43A48" d="M10.185 8.334H9.26v-1.39h.926zM11.111 6.25h-.926V4.861h.926z"/><path fill="#B4131F" d="M9.26 3.472h-.926V2.083h.926zM9.259 4.167h.926v1.389h-.926zM8.333.694h.926v1.389h-.926zM2.778.694h.926v1.389h-.926zM5.556 1.389h.926v1.389h-.926z"/><path fill="#B4131F" d="M6.481.694h.926v1.389h-.926zM7.407 0h.926v1.389h-.926z"/><path d="M33.338 34h-1.64V13h1.64v21zm10.185.273c-1.257 0-2.397-.31-3.418-.93-1.011-.619-1.8-1.48-2.365-2.583-.565-1.112-.847-2.356-.847-3.733v-.588c0-1.421.273-2.702.82-3.841.556-1.14 1.326-2.033 2.31-2.68.985-.656 2.051-.984 3.2-.984 1.795 0 3.217.615 4.265 1.845 1.058 1.222 1.586 2.894 1.586 5.018v.916H38.52v.314c0 1.677.478 3.076 1.435 4.198.966 1.112 2.178 1.668 3.637 1.668.875 0 1.645-.16 2.31-.479.675-.319 1.285-.83 1.832-1.531l1.026.78c-1.203 1.74-2.949 2.61-5.237 2.61zm-.3-13.945c-1.23 0-2.27.451-3.117 1.354-.84.902-1.35 2.114-1.532 3.636h8.873v-.177c-.045-1.422-.45-2.58-1.217-3.473-.765-.893-1.768-1.34-3.007-1.34zm11.58-4.908v3.787h3.062v1.34h-3.062v9.857c0 .82.146 1.431.437 1.832.301.401.798.602 1.49.602.274 0 .716-.046 1.327-.137l.068 1.34c-.428.155-1.012.232-1.75.232-1.121 0-1.937-.323-2.447-.97-.51-.656-.766-1.618-.766-2.885v-9.871h-2.72v-1.34h2.72V15.42h1.64zm15.969 16.707c-.985 1.43-2.557 2.146-4.717 2.146-1.577 0-2.776-.455-3.596-1.367-.82-.92-1.24-2.278-1.258-4.074v-9.625h1.627v9.42c0 2.816 1.14 4.225 3.418 4.225 2.37 0 3.87-.98 4.498-2.94V19.207h1.64V34H70.8l-.028-1.873zM78.481 34h-1.64V13h1.64v21zm6.29 0H83.13V19.207h1.64V34zm-1.928-19.072c0-.31.1-.57.3-.78.201-.218.474-.328.82-.328.347 0 .62.11.821.328.21.21.315.47.315.78 0 .31-.105.57-.315.779-.2.21-.474.314-.82.314-.347 0-.62-.104-.82-.314-.201-.21-.301-.47-.301-.78zm18.279 11.826c0 2.306-.51 4.138-1.531 5.496-1.021 1.349-2.388 2.023-4.102 2.023-2.023 0-3.573-.71-4.648-2.132v7.547h-1.627V19.206h1.517l.082 2.092c1.067-1.577 2.612-2.365 4.635-2.365 1.768 0 3.154.67 4.157 2.01 1.011 1.34 1.517 3.199 1.517 5.578v.232zm-1.64-.287c0-1.887-.388-3.377-1.163-4.47-.774-1.095-1.854-1.642-3.24-1.642-1.002 0-1.864.242-2.584.725s-1.271 1.185-1.654 2.106v7.095c.392.848.952 1.495 1.681 1.942.73.446 1.59.67 2.584.67 1.377 0 2.448-.547 3.213-1.641.775-1.103 1.162-2.698 1.162-4.785z" fill="#333"/></svg>