<svg width="750" height="2520" fill="none" xmlns="http://www.w3.org/2000/svg"><path fill="#B4131F" d="M100 140h50v70h-50z"/><path fill="#D43A48" d="M100 350h50v70h-50zM100 210h50v70h-50zM100 490h50v70h-50zM150 525h50v70h-50zM50 525h50v70H50zM100 420h50v70h-50zM150 385h50v70h-50zM150 805h50v70h-50z"/><path fill="#D43A48" d="M150 873h50v70h-50zM150 245h50v70h-50zM150 315h50v70h-50zM150 105h50v70h-50zM150 175h50v70h-50zM200 350h50v70h-50zM200 210h50v70h-50zM200 280h50v70h-50z"/><path fill="#B4131F" d="M200 70h50v70h-50z"/><path fill="#D43A48" d="M200 140h50v70h-50zM200 700h50v70h-50zM200 560h50v70h-50zM200 630h50v70h-50zM200 420h50v70h-50zM200 490h50v70h-50z"/><path fill="#DAB3A6" d="M100 628h50v70h-50z"/><path fill="#DAB3A6" d="M100 559h50v70h-50zM200 840h50v70h-50zM200 770h50v70h-50zM150 665h50v70h-50zM150 455h50v70h-50zM350 105h50v70h-50zM400 280h50v70h-50zM400 770h50v70h-50zM400 210h50v70h-50zM150 735h50v70h-50zM150 595h50v70h-50z"/><path fill="#D43A48" d="M50 595h50v70H50zM50 735h50v70H50zM50 665h50v70H50z"/><path fill="#B4131F" d="M100 280h50v70h-50z"/><path fill="#D43A48" d="M300 1013h-50v-70h50z"/><path fill="#6CB950" d="M400 1715h-50v-70h50z"/><path fill="#D43A48" d="M300 873h-50v-70h50zM300 803h-50v-70h50z"/><path fill="#B4131F" d="M300 943h-50v-70h50z"/><path fill="#D43A48" d="M350 700h-50v-70h50z"/><path fill="#B4131F" d="M350 630h-50v-70h50zM350 560h-50v-70h50zM350 770h-50v-70h50z"/><path fill="#D43A48" d="M350 980h-50v-70h50zM350 910h-50v-70h50zM350 840h-50v-70h50z"/><path fill="#B4131F" d="M350 1050h-50v-70h50z"/><path fill="#6CB950" d="M450 1610h-50v-70h50zM400 1785h-50v-70h50z"/><path fill="#042208" d="M400 2205h-50v-70h50zM400 2135h-50v-70h50z"/><path fill="#6CB950" d="M400 1575h-50v-70h50z"/><path fill="#D43A48" d="M450 980h-50v-70h50z"/><path fill="#6CB950" d="M450 1890h-50v-70h50zM400 1365h-50v-70h50z"/><path fill="#D43A48" d="M450 910h-50v-70h50z"/><path fill="#CDDB91" d="M450 1820h-50v-70h50z"/><path fill="#D43A48" d="M450 700h-50v-70h50zM450 560h-50v-70h50zM450 770h-50v-70h50zM450 630h-50v-70h50zM450 490h-50v-70h50z"/><path fill="#DAB3A6" d="M600 630h50v70h-50zM450 595h50v70h-50z"/><path fill="#D43A48" d="M600 665h-50v-70h50zM500 525h-50v-70h50zM500 455h-50v-70h50zM500 595h-50v-70h50z"/><path fill="#DAB3A6" d="M450 735h50v70h-50zM600 490h50v70h-50z"/><path fill="#6CB950" d="M450 1680h-50v-70h50z"/><path fill="#D43A48" d="M500 735h-50v-70h50zM300 665h-50v-70h50zM500 385h-50v-70h50z"/><path fill="#B4131F" d="M450 1050h-50v-70h50z"/><path fill="#6CB950" d="M450 1400h-50v-70h50zM450 2030h-50v-70h50z"/><path fill="#042208" d="M400 2275h-50v-70h50zM300 1855h-50v-70h50zM300 1785h-50v-70h50zM300 1715h-50v-70h50zM250 2100h-50v-70h50zM250 2030h-50v-70h50zM250 1960h-50v-70h50zM250 1890h-50v-70h50zM250 1680h-50v-70h50zM250 1610h-50v-70h50zM300 1925h-50v-70h50zM300 2065h-50v-70h50zM300 1995h-50v-70h50zM300 2135h-50v-70h50zM350 2030h-50v-70h50zM350 1960h-50v-70h50zM300 2205h-50v-70h50zM350 2170h-50v-70h50zM350 2100h-50v-70h50zM350 2240h-50v-70h50z"/><path fill="#6CB950" d="M450 1960h-50v-70h50z"/><path fill="#042208" d="M500 2345h-50v-70h50z"/><path fill="#D43A48" d="M500 875h-50v-70h50z"/><path fill="#B4131F" d="M500 945h-50v-70h50z"/><path fill="#D43A48" d="M650 840h-50v-70h50z"/><path fill="#CDDB91" d="M450 1260h-50v-70h50zM450 1330h-50v-70h50zM350 1750h-50v-70h50zM300 1645h-50v-70h50zM350 1890h-50v-70h50zM350 1820h-50v-70h50zM450 2100h-50v-70h50z"/><path fill="#6CB950" d="M500 2065h-50v-70h50zM350 2310h-50v-70h50zM400 2345h-50v-70h50zM250 2240h-50v-70h50zM300 2275h-50v-70h50zM450 2380h-50v-70h50zM500 2415h-50v-70h50z"/><path fill="#CDDB91" d="M500 1995h-50v-70h50z"/><path fill="#6CB950" d="M500 2205h-50v-70h50zM500 2135h-50v-70h50z"/><path fill="#CDDB91" d="M500 2275h-50v-70h50zM450 2240h-50v-70h50zM450 2170h-50v-70h50zM550 2170h-50v-70h50zM550 2310h-50v-70h50zM550 2520h-50v-70h50zM500 2485h-50v-70h50zM550 2450h-50v-70h50zM400 2415h-50v-70h50zM350 2380h-50v-70h50zM450 2450h-50v-70h50zM550 2380h-50v-70h50zM550 2240h-50v-70h50zM400 1925h-50v-70h50zM400 2065h-50v-70h50zM400 1995h-50v-70h50zM400 1295h-50v-70h50z"/><path fill="#6CB950" d="M400 1505h-50v-70h50zM450 1540h-50v-70h50z"/><path fill="#CDDB91" d="M450 1470h-50v-70h50z"/><path fill="#6CB950" d="M150 1540h-50v-70h50zM200 1575h-50v-70h50z"/><path fill="#CDDB91" d="M200 1505h-50v-70h50z"/><path fill="#042208" d="M100 1365H50v-70h50zM100 1295H50v-70h50z"/><path fill="#CDDB91" d="M150 1400h-50v-70h50zM50 1400H0v-70h50z"/><path fill="#6CB950" d="M50 1330H0v-70h50z"/><path fill="#042208" d="M150 1470h-50v-70h50z"/><path fill="#CDDB91" d="M400 1645h-50v-70h50zM400 1435h-50v-70h50zM200 1715h-50v-70h50zM150 1680h-50v-70h50zM200 1645h-50v-70h50zM150 1610h-50v-70h50zM50 1540H0v-70h50zM50 1260H0v-70h50zM50 1470H0v-70h50zM100 1505H50v-70h50z"/><path fill="#6CB950" d="M100 1435H50v-70h50z"/><path fill="#CDDB91" d="M100 1575H50v-70h50zM100 1645H50v-70h50zM150 1750h-50v-70h50zM150 1820h-50v-70h50z"/><path fill="#B4131F" d="M650 910h-50v-70h50z"/><path fill="#042208" d="M450 2310h-50v-70h50z"/><path fill="#D43A48" d="M600 945h-50v-70h50z"/><path fill="#B4131F" d="M600 1015h-50v-70h50z"/><path fill="#D43A48" d="M550 980h-50v-70h50zM550 910h-50v-70h50z"/><path fill="#B4131F" d="M550 1050h-50v-70h50z"/><path fill="#6CB950" d="M400 1855h-50v-70h50zM250 1750h-50v-70h50zM250 1820h-50v-70h50z"/><path fill="#D43A48" d="M500 1015h-50v-70h50z"/><path fill="#B4131F" d="M550 840h-50v-70h50z"/><path fill="#6CB950" d="M400 1225h-50v-70h50z"/><path fill="#B4131F" d="M500 1085h-50v-70h50zM300 1083h-50v-70h50z"/><path fill="#D43A48" d="M250 245h50v70h-50zM250 105h50v70h-50zM250 385h50v70h-50zM250 315h50v70h-50zM400 140h50v70h-50zM400 70h50v70h-50zM300 350h50v70h-50zM400 350h50v70h-50zM350 245h50v70h-50zM350 175h50v70h-50zM350 385h50v70h-50zM350 315h50v70h-50zM350 875h50v70h-50zM350 805h50v70h-50z"/><path fill="#6CB950" d="M400 1680h50v70h-50zM200 2135h-50v-70h50zM200 2205h-50v-70h50zM200 2065h-50v-70h50zM200 2100h50v70h-50zM200 1855h-50v-70h50zM200 1925h-50v-70h50z"/><path fill="#CDDB91" d="M200 1785h-50v-70h50z"/><path fill="#6CB950" d="M150 1925h50v70h-50zM150 2030h-50v-70h50zM150 2100h-50v-70h50zM150 1960h-50v-70h50zM100 2100h50v70h-50zM100 1925H50v-70h50zM100 1995H50v-70h50zM50 1995h50v70H50zM100 1820h50v70h-50z"/><path fill="#D43A48" d="M350 945h50v70h-50zM350 525h50v70h-50zM350 455h50v70h-50zM350 735h50v70h-50zM350 665h50v70h-50zM300 140h50v70h-50zM300 210h50v70h-50zM250 455h50v70h-50zM250 663h50v70h-50zM250 525h50v70h-50z"/><path fill="#B4131F" d="M250 175h50v70h-50zM300 280h50v70h-50zM300 420h50v70h-50zM50 455h50v70H50zM50 385h50v70H50zM0 559h50v70H0zM50 805h50v70H50z"/><path fill="#D43A48" d="M100 698h50v70h-50zM100 838h50v70h-50zM100 768h50v70h-50z"/><path fill="#B4131F" d="M100 908h50v70h-50zM150 943h50v70h-50z"/><path fill="#D43A48" d="M200 910h50v70h-50z"/><path fill="#B4131F" d="M200 978h50v70h-50zM0 628h50v70H0zM0 698h50v70H0zM100 70h50v70h-50zM600 210h50v70h-50zM600 140h50v70h-50zM650 384h50v70h-50zM650 314h50v70h-50zM650 802h50v70h-50zM650 732h50v70h-50zM600 70h50v70h-50z"/><path fill="#6CB950" d="M400 1050h50v70h-50zM350 1015h50v70h-50zM300 1050h50v70h-50z"/><path fill="#B4131F" d="M700 628h50v70h-50zM700 558h50v70h-50zM700 488h50v70h-50zM550 35h50v70h-50zM500 140h50v70h-50z"/><path fill="#D43A48" d="M500 70h50v70h-50z"/><path fill="#B4131F" d="M450 175h50v70h-50z"/><path fill="#D43A48" d="M400 665h-50v-70h50zM500 315h-50v-70h50z"/><path fill="#CDDB91" d="M400 1155h-50v-70h50z"/><path fill="#DAB3A6" d="M650 770h-50v-70h50z"/><path fill="#D43A48" d="M650 630h-50v-70h50zM650 490h-50v-70h50zM650 420h-50v-70h50zM650 350h-50v-70h50zM700 663h-50v-70h50zM700 593h-50v-70h50z"/><path fill="#D43A48" d="M700 524h-50v-70h50zM600 875h-50v-70h50z"/><path fill="#6CB950" d="M450 1190h-50v-70h50z"/><path fill="#D43A48" d="M600 805h-50v-70h50zM550 700h-50v-70h50zM700 732h-50v-70h50zM550 770h-50v-70h50z"/><path fill="#B4131F" d="M600 735h-50v-70h50zM600 595h-50v-70h50zM600 525h-50v-70h50zM600 455h-50v-70h50z"/><path fill="#D43A48" d="M600 385h-50v-70h50zM600 315h-50v-70h50zM600 245h-50v-70h50zM600 175h-50v-70h50zM550 630h-50v-70h50zM550 560h-50v-70h50zM550 490h-50v-70h50zM550 420h-50v-70h50zM550 350h-50v-70h50zM550 280h-50v-70h50z"/><path fill="#B4131F" d="M450 105h50v70h-50zM450 35h50v70h-50zM150 35h50v70h-50zM400 0h50v70h-50zM300 70h50v70h-50zM350 35h50v70h-50z"/><path fill="url(#paint0_linear)" style="mix-blend-mode:color" d="M0 0h750v2520H0z"/><defs><linearGradient id="paint0_linear" x1="0" y1="1260" x2="750" y2="1260" gradientUnits="userSpaceOnUse"><stop offset=".318" stop-color="#fff"/><stop offset=".661" stop-color="#fff" stop-opacity="0"/></linearGradient></defs></svg>