<svg width="130" height="468" fill="none" xmlns="http://www.w3.org/2000/svg"><g opacity=".8"><path fill="#B4131F" d="M17.333 26H26v13h-8.667z"/><path fill="#D43A48" d="M26 71.5h8.667v13H26zM17.333 39H26v13h-8.667zM17.333 91H26v13h-8.667zM26 97.5h8.667v13H26z"/><path fill="#D43A48" d="M8.667 97.5h8.667v13H8.667zM17.333 78H26v13h-8.667zM17.333 65H26v13h-8.667zM26 149.5h8.667v13H26zM26 162.5h8.667v13H26zM26 45.5h8.667v13H26zM26 58.5h8.667v13H26zM26 19.5h8.667v13H26zM26 32.5h8.667v13H26zM34.667 65h8.667v13h-8.667zM34.667 39h8.667v13h-8.667zM34.667 52h8.667v13h-8.667z"/><path fill="#B4131F" d="M34.667 13h8.667v13h-8.667z"/><path fill="#D43A48" d="M34.667 26h8.667v13h-8.667zM34.667 130h8.667v13h-8.667zM34.667 104h8.667v13h-8.667zM34.667 117h8.667v13h-8.667zM34.667 78h8.667v13h-8.667zM34.667 91h8.667v13h-8.667z"/><path fill="#DAB3A6" d="M17.333 117H26v13h-8.667zM17.333 104H26v13h-8.667zM34.667 156h8.667v13h-8.667zM34.667 143h8.667v13h-8.667zM26 123.5h8.667v13H26zM26 84.5h8.667v13H26zM60.666 19.5h8.667v13h-8.667zM69.333 52H78v13h-8.667zM69.333 143H78v13h-8.667zM69.333 39H78v13h-8.667zM26 136.5h8.667v13H26zM26 110.5h8.667v13H26z"/><path fill="#D43A48" d="M8.667 110.5h8.667v13H8.667zM8.667 136.5h8.667v13H8.667zM8.667 123.5h8.667v13H8.667z"/><path fill="#B4131F" d="M17.333 52H26v13h-8.667z"/><path fill="#D43A48" d="M52 188.5h-8.667v-13H52z"/><path fill="#6CB950" d="M69.334 318.5h-8.667v-13h8.667z"/><path fill="#D43A48" d="M52 162.5h-8.667v-13H52zM52 149.5h-8.667v-13H52z"/><path fill="#B4131F" d="M52 175.5h-8.667v-13H52z"/><path fill="#D43A48" d="M60.667 130H52v-13h8.667z"/><path fill="#B4131F" d="M60.667 117H52v-13h8.667zM60.667 104H52V91h8.667zM60.667 143H52v-13h8.667z"/><path fill="#D43A48" d="M60.667 182H52v-13h8.667zM60.667 169H52v-13h8.667z"/><path fill="#B4131F" d="M60.667 156H52v-13h8.667zM60.667 195H52v-13h8.667z"/><path fill="#6CB950" d="M78 299h-8.667v-13H78zM69.334 331.5h-8.667v-13h8.667z"/><path fill="#074710" d="M69.334 422.5h-8.667v-13h8.667zM52 409.5h-8.667v-13H52z"/><path fill="#6CB950" d="M69.334 292.5h-8.667v-13h8.667z"/><path fill="#D43A48" d="M78 182h-8.667v-13H78z"/><path fill="#6CB950" d="M78 351h-8.667v-13H78zM69.334 253.5h-8.667v-13h8.667z"/><path fill="#D43A48" d="M78 169h-8.667v-13H78z"/><path fill="#CDDB91" d="M78 338h-8.667v-13H78z"/><path fill="#D43A48" d="M78 130h-8.667v-13H78zM78 104h-8.667V91H78zM78 143h-8.667v-13H78zM78 117h-8.667v-13H78zM78 91h-8.667V78H78z"/><path fill="#DAB3A6" d="M104 117h8.667v13H104zM78 110.5h8.667v13H78z"/><path fill="#B4131F" d="M104 123.5h-8.667v-13H104z"/><path fill="#D43A48" d="M86.667 97.5H78v-13h8.667zM86.667 84.5H78v-13h8.667zM86.667 110.5H78v-13h8.667z"/><path fill="#DAB3A6" d="M78 136.5h8.667v13H78zM104 91h8.667v13H104z"/><path fill="#6CB950" d="M78 312h-8.667v-13H78z"/><path fill="#D43A48" d="M86.667 136.5H78v-13h8.667zM52 123.5h-8.667v-13H52zM86.667 71.5H78v-13h8.667z"/><path fill="#B4131F" d="M78 195h-8.667v-13H78z"/><path fill="#6CB950" d="M78 260h-8.667v-13H78zM78 377h-8.667v-13H78z"/><path fill="#074710" d="M86.667 435.5H78v-13h8.667zM52 344.5h-8.667v-13H52zM52 331.5h-8.667v-13H52zM52 318.5h-8.667v-13H52zM60.667 416H52v-13h8.667zM43.334 377h-8.667v-13h8.667zM43.334 364h-8.667v-13h8.667z"/><path fill="#074710" d="M52 357.5h-8.667v-13H52zM43.334 312h-8.667v-13h8.667zM43.334 299h-8.667v-13h8.667z"/><path fill="#074710" d="M43.334 351h-8.667v-13h8.667zM52 383.5h-8.667v-13H52zM52 370.5h-8.667v-13H52zM52 396.5h-8.667v-13H52zM60.667 377H52v-13h8.667zM69.334 396.5h-8.667v-13h8.667zM69.334 409.5h-8.667v-13h8.667zM60.667 390H52v-13h8.667zM60.667 364H52v-13h8.667zM60.667 403H52v-13h8.667z"/><path fill="#6CB950" d="M78 364h-8.667v-13H78z"/><path fill="#074710" d="M78 429h-8.667v-13H78z"/><path fill="#D43A48" d="M86.667 162.5H78v-13h8.667z"/><path fill="#B4131F" d="M86.667 175.5H78v-13h8.667z"/><path fill="#D43A48" d="M112.667 156H104v-13h8.667z"/><path fill="#CDDB91" d="M78 234h-8.667v-13H78zM78 247h-8.667v-13H78zM60.667 351H52v-13h8.667zM52 305.5h-8.667v-13H52zM78 403h-8.667v-13H78zM60.667 325H52v-13h8.667zM78 390h-8.667v-13H78z"/><path fill="#6CB950" d="M86.667 383.5H78v-13h8.667zM69.334 435.5h-8.667v-13h8.667z"/><path fill="#6CB950" d="M78 442h-8.667v-13H78zM52 422.5h-8.667v-13H52zM60.667 429H52v-13h8.667zM43.334 403h-8.667v-13h8.667zM86.667 448.5H78v-13h8.667z"/><path fill="#CDDB91" d="M86.667 370.5H78v-13h8.667z"/><path fill="#6CB950" d="M86.667 409.5H78v-13h8.667zM86.667 396.5H78v-13h8.667z"/><path fill="#CDDB91" d="M86.667 422.5H78v-13h8.667zM69.334 383.5h-8.667v-13h8.667zM78 416h-8.667v-13H78zM95.334 403h-8.667v-13h8.667zM95.334 429h-8.667v-13h8.667zM95.334 468h-8.667v-13h8.667zM60.667 442H52v-13h8.667zM95.334 455h-8.667v-13h8.667zM78 455h-8.667v-13H78z"/><path fill="#CDDB91" d="M69.334 448.5h-8.667v-13h8.667zM86.667 461.5H78v-13h8.667zM95.334 442h-8.667v-13h8.667zM95.334 416h-8.667v-13h8.667zM69.334 357.5h-8.667v-13h8.667zM60.667 338H52v-13h8.667zM69.334 370.5h-8.667v-13h8.667zM69.334 240.5h-8.667v-13h8.667z"/><path fill="#6CB950" d="M69.334 279.5h-8.667v-13h8.667z"/><path fill="#6CB950" d="M78 286h-8.667v-13H78z"/><path fill="#CDDB91" d="M78 273h-8.667v-13H78z"/><path fill="#6CB950" d="M26 286h-8.667v-13H26zM34.666 292.5H26v-13h8.667z"/><path fill="#CDDB91" d="M34.666 279.5H26v-13h8.667z"/><path fill="#074710" d="M17.334 253.5H8.667v-13h8.667zM17.334 240.5H8.667v-13h8.667z"/><path fill="#CDDB91" d="M26 260h-8.667v-13H26zM8.666 260H0v-13h8.667z"/><path fill="#6CB950" d="M8.666 247H0v-13h8.667z"/><path fill="#074710" d="M26 273h-8.667v-13H26z"/><path fill="#CDDB91" d="M69.334 305.5h-8.667v-13h8.667zM69.334 266.5h-8.667v-13h8.667zM34.666 318.5H26v-13h8.667zM26 312h-8.667v-13H26zM34.666 305.5H26v-13h8.667zM26 299h-8.667v-13H26zM8.666 286H0v-13h8.667zM8.666 234H0v-13h8.667zM8.666 273H0v-13h8.667zM17.334 279.5H8.667v-13h8.667z"/><path fill="#6CB950" d="M17.334 266.5H8.667v-13h8.667z"/><path fill="#CDDB91" d="M17.334 292.5H8.667v-13h8.667zM17.334 305.5H8.667v-13h8.667zM26 325h-8.667v-13H26zM26 338h-8.667v-13H26z"/><path fill="#B4131F" d="M112.667 169H104v-13h8.667z"/><path fill="#074710" d="M43.334 390h-8.667v-13h8.667z"/><path fill="#D43A48" d="M104 175.5h-8.667v-13H104z"/><path fill="#B4131F" d="M104 188.5h-8.667v-13H104z"/><path fill="#D43A48" d="M95.334 182h-8.667v-13h8.667zM95.334 169h-8.667v-13h8.667z"/><path fill="#B4131F" d="M95.334 195h-8.667v-13h8.667z"/><path fill="#6CB950" d="M69.334 344.5h-8.667v-13h8.667zM26 331.5h8.667v13H26zM26 351h-8.667v-13H26z"/><path fill="#D43A48" d="M86.667 188.5H78v-13h8.667z"/><path fill="#B4131F" d="M95.334 156h-8.667v-13h8.667z"/><path fill="#6CB950" d="M69.334 227.5h-8.667v-13h8.667z"/><path fill="#B4131F" d="M86.667 201.5H78v-13h8.667zM52 201.5h-8.667v-13H52z"/><path fill="#D43A48" d="M43.333 45.5H52v13h-8.667z"/><path fill="#B4131F" d="M43.333 19.5H52v13h-8.667z"/><path fill="#D43A48" d="M43.333 71.5H52v13h-8.667zM43.333 58.5H52v13h-8.667zM95.333 19.5H104v13h-8.667zM69.333 13H78v13h-8.667z"/><path fill="#B4131F" d="M52 65h8.667v13H52z"/><path fill="#D43A48" d="M69.333 65H78v13h-8.667zM60.666 45.5h8.667v13h-8.667zM60.666 32.5h8.667v13h-8.667zM60.666 71.5h8.667v13h-8.667zM60.666 58.5h8.667v13h-8.667zM60.666 162.5h8.667v13h-8.667zM60.666 149.5h8.667v13h-8.667z"/><path fill="#6CB950" d="M69.333 312H78v13h-8.667zM34.666 396.5H26v-13h8.667zM34.666 409.5H26v-13h8.667zM34.666 383.5H26v-13h8.667zM34.667 403h8.667v13h-8.667zM17.334 357.5H8.667v-13h8.667zM43.334 338h-8.667v-13h8.667z"/><path fill="#CDDB91" d="M34.666 331.5H26v-13h8.667z"/><path fill="#6CB950" d="M26 357.5h8.667v13H26zM26 364h-8.667v-13H26zM26 390h-8.667v-13H26zM34.666 357.5H26v-13h8.667zM17.333 390H26v13h-8.667z"/><path fill="#6CB950" d="M17.334 370.5H8.667v-13h8.667zM17.334 383.5H8.667v-13h8.667z"/><path fill="#6CB950" d="M17.333 364H26v13h-8.667zM34.667 312h8.667v13h-8.667z"/><path fill="#D43A48" d="M60.666 175.5h8.667v13h-8.667zM60.666 97.5h8.667v13h-8.667zM60.666 84.5h8.667v13h-8.667zM60.666 136.5h8.667v13h-8.667zM60.666 123.5h8.667v13h-8.667zM52 26h8.667v13H52zM52 39h8.667v13H52zM43.333 84.5H52v13h-8.667zM43.333 123.5H52v13h-8.667zM43.333 97.5H52v13h-8.667z"/><path fill="#B4131F" d="M43.333 32.5H52v13h-8.667zM52 52h8.667v13H52zM52 78h8.667v13H52zM8.667 84.5h8.667v13H8.667zM8.667 71.5h8.667v13H8.667zM0 104h8.667v13H0zM8.667 149.5h8.667v13H8.667z"/><path fill="#D43A48" d="M17.333 130H26v13h-8.667zM17.333 156H26v13h-8.667zM17.333 143H26v13h-8.667z"/><path fill="#B4131F" d="M17.333 169H26v13h-8.667zM26 175.5h8.667v13H26z"/><path fill="#D43A48" d="M34.667 169h8.667v13h-8.667z"/><path fill="#B4131F" d="M34.667 182h8.667v13h-8.667zM0 117h8.667v13H0zM0 130h8.667v13H0zM17.333 13H26v13h-8.667zM104 39h8.667v13H104zM104 26h8.667v13H104zM112.667 71.5h8.667v13h-8.667zM112.667 58.5h8.667v13h-8.667zM112.667 149.5h8.667v13h-8.667zM112.667 136.5h8.667v13h-8.667zM104 13h8.667v13H104z"/><path fill="#6CB950" d="M69.333 195H78v13h-8.667zM60.666 188.5h8.667v13h-8.667z"/><path fill="#6CB950" d="M52 195h8.667v13H52z"/><path fill="#B4131F" d="M121.333 117H130v13h-8.667zM121.333 104H130v13h-8.667zM121.333 91H130v13h-8.667zM95.333 6.5H104v13h-8.667z"/><path fill="#D43A48" d="M78 32.5h8.667v13H78zM69.333 26H78v13h-8.667zM78 45.5h8.667v13H78zM69.334 123.5h-8.667v-13h8.667zM104 45.5h-8.667v-13H104z"/><path fill="#CDDB91" d="M69.334 214.5h-8.667v-13h8.667z"/><path fill="#DAB3A6" d="M112.667 143H104v-13h8.667z"/><path fill="#D43A48" d="M112.667 117H104v-13h8.667zM112.667 91H104V78h8.667zM112.667 78H104V65h8.667zM112.667 65H104V52h8.667z"/><path fill="#D43A48" d="M121.333 123.5h-8.667v-13h8.667zM121.333 110.5h-8.667v-13h8.667zM121.333 97.5h-8.667v-13h8.667zM104 162.5h-8.667v-13H104z"/><path fill="#6CB950" d="M78 221h-8.667v-13H78z"/><path fill="#D43A48" d="M104 149.5h-8.667v-13H104zM95.334 130h-8.667v-13h8.667zM121.333 136.5h-8.667v-13h8.667z"/><path fill="#D43A48" d="M95.334 143h-8.667v-13h8.667z"/><path fill="#B4131F" d="M104 136.5h-8.667v-13H104zM104 110.5h-8.667v-13H104zM104 97.5h-8.667v-13H104zM104 84.5h-8.667v-13H104zM104 71.5h-8.667v-13H104z"/><path fill="#D43A48" d="M95.334 26h-8.667V13h8.667zM95.334 65h-8.667V52h8.667zM95.334 39h-8.667V26h8.667zM95.334 117h-8.667v-13h8.667zM95.334 104h-8.667V91h8.667zM95.334 91h-8.667V78h8.667zM95.334 78h-8.667V65h8.667z"/><path fill="#D43A48" d="M104 58.5h-8.667v-13H104z"/><path fill="#B4131F" d="M86.667 32.5H78v-13h8.667zM86.666 39h8.667v13h-8.667zM78 6.5h8.667v13H78zM26 6.5h8.667v13H26zM52 13h8.667v13H52z"/><path fill="#B4131F" d="M60.666 6.5h8.667v13h-8.667zM69.333 0H78v13h-8.667z"/><path fill="url(#paint0_linear)" style="mix-blend-mode:color" d="M0 0h130v468H0z"/></g><defs><linearGradient id="paint0_linear" x1="0" y1="234" x2="130" y2="234" gradientUnits="userSpaceOnUse"><stop offset=".318" stop-color="#fff"/><stop offset=".661" stop-color="#fff" stop-opacity="0"/></linearGradient></defs></svg>